<?xml version="1.0" encoding="utf-8"?>
<!-- Generator: Adobe Illustrator 19.2.1, SVG Export Plug-In . SVG Version: 6.00 Build 0)  -->
<!DOCTYPE svg PUBLIC "-//W3C//DTD SVG 1.1//EN" "http://www.w3.org/Graphics/SVG/1.1/DTD/svg11.dtd">
<svg version="1.1" id="Layer_1" xmlns="http://www.w3.org/2000/svg" xmlns:xlink="http://www.w3.org/1999/xlink" x="0px" y="0px"
	 viewBox="0 0 216 275.6" style="enable-background:new 0 0 216 275.6;" xml:space="preserve">
<style type="text/css">
	.st0{fill:#C8102E;}
	.st1{fill:#4B4F55;}
	.st2{fill:#FFFFFF;}
</style>
<rect x="0" y="206.8" class="st0" width="216" height="68.8"/>
<rect class="st1" width="216" height="200"/>
<rect y="200" class="st2" width="216" height="6.8"/>
<g>
	<path class="st2" d="M54,254.3c-1.5,0.7-4.9,1.5-9.3,1.5c-12.6,0-19-7.6-19-17.6c0-11.9,8.8-18.5,19.8-18.5c4.3,0,7.5,0.8,8.9,1.6
		l-1.7,6.2c-1.6-0.7-3.9-1.3-6.9-1.3c-6.5,0-11.5,3.8-11.5,11.6c0,7,4.3,11.4,11.6,11.4c2.5,0,5.2-0.5,6.9-1.1L54,254.3z"/>
	<path class="st2" d="M71.1,243.2c-4.3,0-7.7,1-7.7,4c0,2,1.4,3,3.2,3c2,0,3.7-1.3,4.3-2.9c0.1-0.4,0.2-0.9,0.2-1.4V243.2z
		 M79,249.1c0,2.4,0.1,4.7,0.4,6.1H72l-0.5-2.5h-0.2c-1.7,2-4.4,3.1-7.5,3.1c-5.3,0-8.5-3.7-8.5-7.8c0-6.6,6.1-9.7,15.5-9.7V238
		c0-1.4-0.8-3.3-4.8-3.3c-2.7,0-5.6,0.9-7.3,1.9l-1.5-5.1c1.8-1,5.4-2.3,10.2-2.3c8.8,0,11.5,5,11.5,11V249.1z"/>
	<path class="st2" d="M109.4,240.1c0-0.5-0.1-1-0.2-1.5c-0.6-2.1-2.2-3.5-4.4-3.5c-3,0-5.4,2.6-5.4,7.2c0,3.8,1.9,6.8,5.3,6.8
		c2.2,0,3.8-1.3,4.4-3.2c0.2-0.6,0.3-1.5,0.3-2.1V240.1z M117.5,251.5c0,4.9-1,8.9-4,11.4c-2.9,2.4-6.8,3.1-10.7,3.1
		c-3.5,0-7.1-0.7-9.5-1.9l1.6-6c1.7,0.9,4.5,1.9,7.7,1.9c3.9,0,6.8-2,6.8-6.7v-1.6h-0.1c-1.6,2.1-4.1,3.3-7.1,3.3
		c-6.5,0-11.2-5.1-11.2-12.4c0-8.2,5.4-13.4,12-13.4c3.6,0,5.9,1.5,7.2,3.6h0.1l0.3-3.1h7.1c-0.1,1.7-0.2,3.8-0.2,7.6V251.5z"/>
	<path class="st2" d="M134.9,243.2c-4.3,0-7.7,1-7.7,4c0,2,1.4,3,3.2,3c2,0,3.7-1.3,4.3-2.9c0.1-0.4,0.2-0.9,0.2-1.4V243.2z
		 M142.8,249.1c0,2.4,0.1,4.7,0.4,6.1h-7.4l-0.5-2.5h-0.2c-1.7,2-4.4,3.1-7.5,3.1c-5.3,0-8.5-3.7-8.5-7.8c0-6.6,6.1-9.7,15.5-9.7
		V238c0-1.4-0.8-3.3-4.8-3.3c-2.7,0-5.6,0.9-7.3,1.9l-1.5-5.1c1.8-1,5.4-2.3,10.2-2.3c8.8,0,11.5,5,11.5,11V249.1z"/>
	<path class="st2" d="M145,238.2c0-3.7-0.1-6.2-0.2-8.4h7l0.3,4.7h0.2c1.3-3.7,4.5-5.3,7.1-5.3c0.8,0,1.1,0.1,1.7,0.2v7.4
		c-0.6-0.1-1.3-0.2-2.2-0.2c-3,0-5.1,1.6-5.6,4c-0.1,0.5-0.2,1.1-0.2,1.8v12.9H145V238.2z"/>
	<path class="st2" d="M171.7,229.8l3.9,12.5c0.4,1.5,1,3.4,1.3,4.7h0.2c0.3-1.4,0.8-3.3,1.1-4.8l3.3-12.5h8.7l-6.1,16.7
		c-3.8,10.1-6.3,14.1-9.3,16.7c-2.8,2.4-5.8,3.3-7.9,3.5l-1.8-6.6c1-0.2,2.3-0.7,3.6-1.4c1.2-0.6,2.6-1.9,3.4-3.2
		c0.3-0.4,0.4-0.8,0.4-1.1c0-0.3-0.1-0.7-0.3-1.3l-9.7-23.3H171.7z"/>
	<rect x="81.2" y="218.3" class="st2" width="8.2" height="36.9"/>
</g>
<g>
	<path class="st2" d="M111.7,45.4l-2.4-29.5L107,45.4C108.6,45.3,110.1,45.3,111.7,45.4"/>
	<path class="st2" d="M148.3,150.2L148.3,150.2c0.1-0.9,0-1.7-0.5-2.3c-0.5-0.6-1.2-1-2.3-1.1c-0.3,0-0.6,0-0.8,0L144,153
		c0.2,0,0.4,0.1,0.5,0.1C146.7,153.4,148,152.4,148.3,150.2"/>
	<path class="st2" d="M101.2,45.9l-7.3-21.8L96.6,47C98.1,46.6,99.6,46.2,101.2,45.9"/>
	<path class="st2" d="M124.9,24.7L117.7,46c1.5,0.3,3,0.6,4.4,1L124.9,24.7z"/>
	<path class="st2" d="M73,147.4c-0.4-0.3-0.8-0.4-1.2-0.4c-0.1,0-0.2,0-0.3,0c-0.6,0.1-1,0.3-1.4,0.8c-0.5,0.6-0.7,1.6-0.5,2.7
		c0.3,1.9,1.3,3,2.7,2.9c1.4-0.2,2.1-1.5,1.9-3.5C74.1,148.8,73.7,147.9,73,147.4"/>
	<path class="st2" d="M133.2,146.7c0-0.3,0-0.6-0.2-0.8c-0.2-0.3-0.6-0.4-1.2-0.5c-0.3,0-0.6,0-0.8,0l-0.2,2.3l0.7,0
		C132.5,147.9,133.2,147.5,133.2,146.7"/>
	<path class="st2" d="M96.6,109.9l-1.3-5l4.8,1l0.8-2.9l3.8,4.4c0,0.1,0.1,0.1,0.1,0.1c0-0.1,0-0.2,0-0.4l-1.5-8.4l2.8,1.5
		c0.2,0.1,0.4,0.2,0.4,0.1c0,0,0.1-0.1,0.1-0.1l2.9-5.7l2.9,5.7c0,0,0,0.1,0.1,0.1c0,0,0.2,0,0.4-0.1l2.8-1.5l-1.5,8.4
		c0,0.2,0,0.3,0,0.4c0,0,0.1-0.1,0.1-0.1l3.8-4.4l0.8,2.8l4.8-1l-1.3,5c0,0.2-0.1,0.4-0.1,0.5c0,0,0,0,0.1,0l2.2,1.1l-7.3,6.2
		c-0.1,0.1-0.2,0.3-0.1,0.4l0.8,2.8l-7.4-0.9l0.2,6.2h-2.3l0.3-6.1l-7.4,0.9l0.8-2.8c0-0.1,0-0.3-0.1-0.4l-7.3-6.2l2.1-1.1
		c0.1-0.1,0.2-0.1,0.2-0.1C96.7,110.4,96.6,110.2,96.6,109.9 M84.2,120.8c2,1.7,22.5,14.5,25.2,14.5c2.7,0,23.1-12.8,25.2-14.5
		c2.9-2.6,4.5-6.6,3.1-13.9c-0.1-0.4-0.2-0.9-0.3-1.2c-0.1-0.6-3.7-10.4-3.7-14c0-2.1,0.4-3.9,1.1-6.1H84c0.7,2.2,1.1,4.1,1.1,6.1
		c0,3.6-3.6,13.4-3.7,14c-0.1,0.4-0.2,0.8-0.3,1.2C79.7,114.2,81.2,118.2,84.2,120.8"/>
	<path class="st2" d="M90.8,49l-9-14.2l4.8,16.2C88,50.2,89.4,49.5,90.8,49"/>
	<path class="st2" d="M160.6,127.8c-1.4,0.2-4.8,0.1-5.4,0c-0.4,0-0.9,0.1-1.2,0.3c-0.4,0.3-0.7,0.7-0.8,1.1c-0.1,1-0.7,1.9-1.8,2.9
		c-0.9,0.8-2.5,3.4-3.1,4.4c0.4,0,1.5,0,4.3-0.7c1.3-0.3,2.6-1,2.9-1.2c0-0.2,0.1-0.4,0.1-0.8c0.1-0.6,0.2-1.2,0.3-1.4
		c0-0.3,0.5-1.9,2.7-1.9l0.8,0c5.4,0.1,8.8,0.1,9.3,0c0.6-0.1,1.3-0.6,1.4-0.9c0-0.1,0-0.2-0.1-0.3c-1.2-1.6-2.7-4.7-2.9-7.2
		c-0.1-1.1,0-2.1,0.4-2.8c0.5-1,1.3-1.8,2.1-2.5c0.2-0.2,0.3-0.3,0.5-0.5c0.9-0.9,2.2-2.5,2-3.5c0-0.2-0.1-0.7-0.8-1
		c-3.8-1.7-9.2-3.8-13.5-6.2c0.8,3,0.5,5.1-0.8,6.3c-1.6,1.5-0.4,4.2,1,6.6c0.6,1,1.1,1.8,1.6,2.6l0.1,0.2c1.8,2.8,2.8,4.4,2.2,5.5
		C161.9,127.4,161.4,127.7,160.6,127.8"/>
	<path class="st2" d="M118.1,146.7c-0.1-0.3-0.2-0.6-0.2-0.9c-0.1,0.3-0.2,0.6-0.3,0.9c-0.2,0.6-0.4,1.2-0.6,1.8c0.5,0,1,0,1.6,0
		L118.1,146.7z"/>
	<path class="st2" d="M151.9,66.2c-0.1,0-0.2,0-0.3,0c-0.8,0-1.6-0.4-1.8-0.8c-0.2-0.2-0.1-0.4-0.1-0.5c0.8-1.8,2.3-2,3.3-1.6
		c0.5,0.2,1,0.6,0.9,1C153.3,65.7,152.5,66.1,151.9,66.2 M200.7,90.4c-0.3-1.9-1.5-2.9-2.9-4.1c-0.6-0.5-1.2-1-1.8-1.6
		c-0.5-0.3-1.1-1.1-1.9-1.9c-2-2.2-5.3-5.7-8.3-5.9c-1.7-0.1-2.7,0.4-3.5,1.3c-0.8,0.8-1.3,2.4-1.3,4.2c0,2.6,2.9,5.8,5.3,8.5
		c2.6,2.9,5.3,5.1,5.4,8c0.1,2.7-2.8,4.3-3.7,3.7c-1.4-0.9-11.8-14.7-14.4-25.7c-2.8-11.6-4.2-14.6-8.2-16.8
		c-1.2-0.7-1.9-1.1-2.3-1.4c-0.5-0.3-0.8-0.5-1.2-0.7l-0.1,0l-0.1-0.1c-0.2-0.4-0.2-0.9-0.2-1.2c0-0.2,0-0.5-0.1-0.6
		c-0.8-1.6-3-1-3.1-1c-2.9,0.8-7.7,1.3-13.3,0.5c4.7,3.3,10.8,2.1,10.9,2.1c0.2,0,0.5-0.1,0.8,0.2c0.1,0.1,0.2,0.4,0.1,0.5
		c-0.3,0.7-2.8,1.8-5.6,2.2c-1.3,0.2-1.4,0.5-1.7,1.6c-0.1,0.4-0.2,0.9-0.4,1.4l-0.1,0.1c-1,1.6-4.5,7.1-5.2,9.4
		c-0.1,0.5,0,1,0.3,1.5c0.7,1.1,2.1,2.7,3.1,2.7l0.1,0c0.3,0.1,1-0.2,1.4-0.8c0.9-1.3,4.3-1.3,5-1.3c0.7,0,3.1-0.5,4.6-3
		c0.4-0.7,1.3,0.3,1.4,1c0.1,0.7-2.3,3.5-5.6,4.5c-0.1,0-1.8,0.6-2.6,1.8c-0.7,1.1-1.5,3.5-1.8,4.5c0.5,0.2,2.2-0.1,4.1-0.7
		c0,0,0.1,0,0.1,0c0.3,0,0.5,0.1,0.6,0.3c0.1,0.1,0.2,0.4-0.1,0.8c-0.4,0.8-1.7,1.6-3.9,1.6c-0.8,0-7.8-0.1-9.7,2
		c-0.4,0.4-0.5,0.9-0.4,1.5c0.6,3.3,1.4,7.1,2.7,10.8c0.3,0.7,1.4,3.3,3.1,4.4c0.1,0,1.3-1.3,1.6-3c0.2-1.5-0.5-3.5-0.7-3.7
		c-0.2-0.1-0.3-0.1-0.5-0.1c-0.7-0.1-1.1-0.2-1.3-0.4c-0.5-0.6-0.4-1.3-0.3-1.9c0.1-0.4,0.3-0.9,0.1-1.3c-0.2-0.3-0.5-0.6-0.6-0.9
		c-0.2-0.5-0.4-1.1-0.3-1.6c0.3-1,1.9-0.8,2.7-0.7c1.4,0.2,2.7,0.7,4,1.1c0.7,0.2,1.4,0.4,2.1,0.5c1.5,0.2,4.1,0.7,5.6-0.1
		c1.1-0.7,2-2.8,2.3-3.5c0.2-0.4,0.6-1.1,0.9-1c0.3,0,0.3,0.7,0.3,0.7c0.1,1.1-0.1,5-2.3,6.1c-0.8,0.4-2.1,0.6-3.6,0.6H156
		c-2,0-3.4-0.2-4.7-0.7c2.7,6.2,9.4,9.8,16.3,12.7c4.7,2,8.5,3.7,8.7,6.6c0,0.4,0,0.9-0.1,1.7c-0.4,3.2-2.3,9.1,3.9,15.9
		c1.4,1.5,4.5,6.5,1.1,12.2c-0.4,0.6-0.9,1.5-1.5,2.2c-0.8,1-3.9,2.9-3.7,3.3c0.3,0.8,3.4,1,4.7,1c1.3,0,2.3-0.1,2.8-0.7
		c0.1-0.1,0.2-0.7,0.2-1c0.1-0.8,0.2-1.7,0.9-2c0.3-0.3,0.5-3.7,0.7-5.1c0.2-2.4,0.4-3.9,0.6-4.5c0.2-0.5,0.6-0.9,0.9-1.4
		c0.6-0.8,1.2-1.7,1.2-2.3c0-0.3-0.3-0.7-0.6-1.2c-0.7-1.1-1.8-2.8-1-4.7c0.7-1.6,1.5-2.8,2.3-3.9l0.1-0.1c0.5-0.7,1-1.4,1.3-2.1
		c0.9-1.8,2.7-6.3,2.6-8.7c0-0.4-0.3-1.6-2.1-6l-0.1-0.3l0.5-0.5c0.8-0.8,3.2-3.6,3.4-6.3c0.3-3.6-3.2-6.9-6.4-9.9
		c-2.7-2.5-4.8-4.7-5.2-6.9c-0.2-1.4,0.1-2.6,0.6-3.2c0.5-0.5,1.2-0.7,1.8-0.7c2.3-0.2,6.7,3.7,8.7,6.2c0.6,0.8,0.7,2.1,0.6,3.1
		c0,0.8,0,1.5,0.1,2.3c0.1,0.8,0.4,1.1,0.7,1.6c0.4,0.6,0.9,1.2,1.1,2.5c0.7-1.4,0.6-1.8,0.7-2.2c0.2-0.9,0.8-1,0.7-0.2
		c-0.4,2.7,0.5,5.1,1.1,5.7c0.1,0.1,0.3,0.3,0.4,0.4c-0.4-1.3,0-2.6,0.4-3.9C200.3,93,200.9,91.6,200.7,90.4"/>
	<path class="st2" d="M61.8,63.4c1-0.4,2.4-0.2,3.3,1.6v0c0,0.1,0.1,0.3-0.1,0.5c-0.3,0.4-1,0.8-1.8,0.8c-0.1,0-0.2,0-0.3,0
		c-0.6-0.1-1.4-0.5-1.9-1.8C60.8,64,61.3,63.6,61.8,63.4 M39.3,145.7l-0.3-0.2c-0.8-0.2-0.9-1-1.1-1.9c-0.1-0.4-0.2-0.9-0.3-1.3
		c-0.2-0.6-0.4-5.7-0.3-6.4c0.5-3.8,3.1-6.9,5.3-9.7c2.4-2.9,4.4-5.5,4-8.3c-0.1-0.4-0.2-0.8-0.5-1.3c-0.5-1.2-1.2-2.7,0-4.4
		c2-2.9,5.4-4.4,9.1-5.8c11.9-4.7,13.3-12.8,13-13.5c-0.3-0.8-1.3-0.7-3.4,0.1c-1.7,0.7-2.9,0.8-4.2,0.8c-3,0-3.9-2.5-4-2.7
		c-0.1-0.3,0.2-0.4,0.3-0.4c0.2,0,2.8,2.2,6.9,0.1c3.2-1.7,9.1-1.4,10.8,0.1c0.2,0.4,0.9,3.7-0.8,5c-0.9,0.7-1,1.5-0.9,2
		c0.1,0.8-0.8,1.2-1.5,1.1c-0.2,0-0.4,0-0.6,0c-1,0-2.4,0.4-2.7,0.8c-0.2,0.4,0.4,3.1,0.9,4.4c0.4,1.1,1.1,2.3,1.2,2.3
		c0.3,0,1.6-0.9,2-1.2c0.4-0.3,0.8-0.6,1.2-0.9c1-0.8,1.4-2.1,2.4-3c0.3-0.3,0.4-0.3,0.8-0.5c0.4-0.2,2.7-7.8,2.7-10.8
		c0-2.7-3.6-3.9-5.1-4.3c-0.7-0.1-11.9-3.3-12.4-3.5c-2.3-0.6-3-3.4-2.3-3.5c0.3-0.1,0.3,0.9,2.6,1.5c0.6,0.2,5,1.6,6.3,2.1
		c-0.9-3.1-5.3-4.9-12.6-9.6c-2.4-1.6-3.2-3.3-3.2-5c0-0.9,0.6-1.1,0.6-1.1l0.1,0.2c2.2,4.6,5.3,4.3,6.3,4.2c0.8-0.1,1.2-0.1,1.6,0
		c0.1,0,0.2,0.1,0.3,0.1c0.6,0.3,1.3,1,3.2,1.5c0.4,0.1,2,1.5,2,1.5s0.5,0.5,1,0.5c0.3,0,0.7-0.1,0.7-0.3c0-0.1,0-0.2-0.2-0.3
		c-1.4-1.1-1-2.4-1-2.4c0.8-0.4,2.6,0.9,2.7,1c0.3,0.2,0.6,0.4,1,0.3c0.4-0.1,3-1,1.9-3c-0.2-0.4-1-1.3-2.4-2.6
		c-1.8-1.7-3.7-4.2-4.2-5.2c-0.7-1.6-1.8-2.8-3.2-3.5c-0.2-0.2-0.2-0.3-0.2-0.5c0-0.4,0.7-0.8,1.6-1.3c0.9-0.5,1.7-0.9,1.8-1.4
		c0-0.1,0-0.1-0.1-0.2c-0.3-0.3-1.6-0.7-2.9-0.7c-1.3,0-2.2,0.3-2.7,1l-0.1,0.1l-0.1-0.1c-0.6-0.3-2.1-0.5-4.4-0.5l-0.3,0
		c-1.6,0-2.8,0.6-3.8,1c-0.9,0.4-1.6,0.8-2.4,0.8c-0.5,0-1.1-0.1-1.8-0.4c-0.4,1-0.1,1.8,0.9,2.5l0.4,0.2l-0.4,0.1
		c-1.9,0.5-2.4,1.5-3,2.3c-0.5,0.8-0.9,1.5-2.5,1.5c-0.6,0-1.2-0.1-2-0.3c0,0-0.1,0-0.1,0.1c-0.2,0.6-0.1,1.2,0.2,1.6
		c0.4,0.6,1.3,1.1,2.7,1.3l0.4,0.1l-0.3,0.3c-2.3,1.8-2.7,5-3.1,7.8c-0.3,2.2-0.5,4-1.6,4.9c0.7,0.3,1.2,0.4,1.6,0.4
		c0.7,0,1-0.4,1.2-0.7c0.1-0.1,0.1-0.2,0.2-0.3l0.1-0.1l0.1,0.1c0.4,0.5,1.1,3.4,0.8,6.3c-0.2,1.8-0.9,4.2-2.9,5.5
		c0.6,0.3,2.2,0,2.9-0.4c1.1-0.7,2-1.8,2.7-2.9c0.3-0.4,0.9-2.1,1.1-2.1c0.4-0.1,0.6,0.7,0.7,1c0.6,2.9-3.4,8-8.6,11.1
		c-8.3,4.8-9.4,10.2-9.8,12l-0.1,0.4l-0.2-0.2c-1.3-0.9-1.5-2-1.5-2.9c0-2.9,1.8-5.9,3.6-9.1c1.7-2.9,3.4-5.8,3.8-8.8
		c1-6.6-1.1-10.1-2.4-12.2c-0.5-0.9-1-1.6-1-2.1c0-0.8,0.4-1.3,1.2-1.3c0.7,0,1.4,0.3,1.8,0.7c0.1,0,0.2-0.1,0.4-0.2
		c0.1-0.4-0.1-0.9-0.6-1.4c-0.6-0.7-2-1.6-3.7-1.6L31,70c-2.7,0.1-3.9,3.8-4.2,5.7l0,0.2l-0.2,0c-0.2,0-0.5,0-0.7,0
		c-6.3,0-8.4,6.7-8.6,10.7c-0.1,2,0.1,3.9,0.4,5.5c0.3,1.9,0.5,3.5,0.1,4.9c-0.3,0.9-1.1,0.7-1.6,0.6c-0.3-0.1-0.6-0.1-0.8,0
		c-0.1,0-0.1,0.1-0.1,0.2c0,0.1,0.1,0.3,0.3,0.5c0.6,0.6,1.8,1.1,2.8,0.9c1.4-0.3,2.2-3.7,2.6-5.7c0.1-0.7,0.3-1.2,0.4-1.5
		c0.1-0.3,0.2-0.6,0.5-0.6c0.4,0,0.5,0.8,0.7,3c0,0.3,0.2,0.4,0.4,0.4c0.2,0,0.4,0,0.5-0.3c0.2-0.4,0.2-1,0.3-1.5
		c0.3-1.6,0.6-3.3,2.4-3.4c0.3,0,0.5,0.1,0.6,0.3c0.6,0.8,0.3,3-0.9,6.8c-1,3.3-2.2,7.1-1.9,9.6c0.6,5.2,3.8,6.7,4.5,6.9l0.1,0
		l0,0.1c0.5,2.2,1.4,4.7,2.5,7.2c2,4.5,2.5,8.5,1.4,11.2l-0.1,0.1c-0.3,0.3-0.6,0.9-0.6,1.5c0,0.5,0,1.1,0.6,1.7
		c1.3,1.4,0.3,5.2-0.3,7.4c-0.1,0.5,0.3,1.6,1.3,2.1c0.4,0.2,0.5,1.6,0.4,2.5c-0.2,1.3,0,2.3,0.4,3l0.1,0.1c0.7,0.1,1.5,0.2,2.5,0.2
		c2.3,0,4.8-0.4,5-0.5c0.1,0,0.1-0.1,0.2-0.2c0-0.1,0-0.3-0.1-0.4C41.4,148.9,39.9,146.4,39.3,145.7"/>
	<path class="st2" d="M63.8,161.9l-1.5,0.2l-1.3-8.2c-6.2,0.7-12.5,1.5-18.6,2.5c4.4,3.1,8.7,6.4,13,9.7c8.6-1.4,17.3-2.5,26-3.4
		c-1.2-0.9-2.4-1.7-3.7-2.6C72.9,160.6,68.2,161.2,63.8,161.9"/>
	<path class="st2" d="M62.4,135.3c0.4,0.3,5.4,1.2,6.6,1.2c-0.1-0.9-0.7-3.8-1.3-4.4c-0.3-0.3-0.5-0.4-0.6-0.5
		c-0.5-0.3-1.4-0.6-2-1.7c-0.4-0.9-1.2-1.4-2.5-1.6c-2.7-0.9-7.1-2.6-7.1-3.9c0-1.4,1.1-2.8,2.3-4.2c1.5-1.8,3.1-3.8,2.5-5.9l0-0.1
		c-0.3-1.1-0.9-3-2-4.5c-0.6-0.8-1.8-1.2-2.8-0.8c-6.5,2.2-7.9,5-7.9,5.4c0,0.4,0.5,0.8,1.1,1.3c2,1.6,4.7,3.9,0.9,11.6
		c-0.1,0.2-0.1,0.5,0.1,0.7c0.2,0.3,0.6,0.5,1.3,0.4c2.9-0.6,6.9,1.1,8.1,2.4c0.9,1,1.4,1,1.9,1l0.1,0c0.2,0,0.4,0.1,0.6,0.3
		c0.4,0.5,0.5,1.2,0.4,1.6C62.2,134,62.3,135.2,62.4,135.3"/>
	<path class="st2" d="M130.1,71.2c-2.6,0.6-5.1,0.9-7.6,0.9c-6.6,0-11.8-1.6-13.2-2.4c-1.4,0.8-6.5,2.4-13.2,2.4
		c-2.4,0-5-0.3-7.6-0.9c-0.6-0.1-1.1,0.1-1.4,0.7c-1.9,3.8-3.8,6.3-5.2,8.1l1,2.8l9.5-3.9l7.1,3.5l9.9-6.5l9.5,6.5l6.7-3.5l9.9,3.9
		l1-2.8c-1.4-1.8-3.3-4.3-5.2-8.1C131.2,71.4,130.6,71.1,130.1,71.2"/>
	<path class="st2" d="M126.5,168.6c-0.9-4.7-4.2-8-4.2-8s-7.7,6.9-13,11.6c-5.3-4.8-13-11.6-13-11.6s-3.3,3.3-4.2,8
		c-0.6,3.5-2.2,4.4-2.2,4.4l5.7,5.1c0,0,2.1-2,2.6-5.1c0.5-3.6,3.1-6.1,3.1-6.1s3.7,3.2,7,6.1c-2.3,2.1-4,3.6-4,3.6
		c-0.1,0.1-0.2,0.4,0,0.7c0.2,0.3,0.6,0.3,0.7,0.2c0,0,1.9-1.7,4.2-3.7c2.3,2,4.2,3.7,4.2,3.7c0.1,0.1,0.5,0.1,0.7-0.2
		c0.2-0.3,0.2-0.6,0-0.7c0,0-1.7-1.5-4-3.6c3.3-2.9,7-6.1,7-6.1s2.6,2.4,3.1,6.1c0.4,3.1,2.6,5.1,2.6,5.1l5.7-5.1
		C128.7,173,127.2,172.1,126.5,168.6"/>
	<path class="st2" d="M110.3,142.4l-0.1,0.4c-0.9,3.4-1.9,6.9-2.8,10.4l-0.1,0.2l-0.2,0c-0.9,0-1.7,0-2.6,0l-0.2,0l-0.1-0.2
		c-0.3-1.5-0.6-3-1-4.5c-0.1-0.4-0.2-0.9-0.3-1.4c-0.1,0.5-0.2,1-0.3,1.4c-0.3,1.5-0.6,3-0.9,4.5l0,0.2l-0.2,0c-0.9,0-1.7,0-2.6,0.1
		l-0.2,0l-0.1-0.2c-1-3.5-2-6.9-3-10.3l-0.1-0.4l0.4,0c0.9,0,1.8-0.1,2.6-0.1l0.2,0l0.1,0.2c0.3,1.4,0.6,2.8,1,4.2
		c0.2,0.7,0.3,1.4,0.4,2c0.1-0.7,0.2-1.4,0.4-2.1c0.3-1.4,0.5-2.8,0.8-4.3l0-0.2l0.2,0c0.9,0,1.8,0,2.6-0.1l0.2,0l0.1,0.2
		c0.3,1.5,0.6,2.9,0.9,4.4c0.1,0.6,0.2,1.1,0.3,1.7c0.1-0.3,0.1-0.7,0.2-1l0.1-0.8c0.3-1.4,0.6-2.8,0.9-4.3l0-0.2l0.2,0
		c0.8,0,1.7,0,2.5,0L110.3,142.4z M112.6,153c1.1-3.4,2.3-6.9,3.5-10.3l0.1-0.2l0.2,0c1.1,0,2.2,0.1,3.2,0.1l0.2,0l0.1,0.2
		c1,3.5,2,7,2.9,10.5l0.1,0.4l-0.4,0c-0.9,0-1.7-0.1-2.6-0.1l-0.2,0l-0.1-0.2c-0.2-0.8-0.4-1.7-0.7-2.5c-0.9,0-1.7-0.1-2.6-0.1
		c-0.3,0.8-0.5,1.6-0.7,2.4l-0.1,0.2l-0.2,0c-0.8,0-1.6,0-2.5,0l-0.4,0L112.6,153z M128.1,143.1l0.3,0c0.9-0.1,2.1-0.1,3.4,0
		c1.8,0.1,2.9,0.5,3.6,1.2c0.7,0.6,1,1.5,0.9,2.5c-0.1,1.2-1,2.1-1.8,2.4c0.5,0.4,0.8,1,0.9,1.9c0.1,0.3,0.1,0.7,0.2,1l0,0.2
		c0.1,0.8,0.3,1.5,0.4,1.8l0.2,0.5l-0.5,0c-0.8-0.1-1.6-0.1-2.4-0.2l-0.2,0l-0.1-0.2c-0.2-0.4-0.4-1.3-0.6-2.5
		c-0.2-1.3-0.6-1.5-1.4-1.5l-0.4,0l-0.3,4.1l-0.3,0c-0.8-0.1-1.6-0.1-2.4-0.2l-0.3,0L128.1,143.1z M141.9,144.3l0.3,0
		c1,0,2.2,0,3.4,0.1c2.1,0.2,3.5,0.8,4.5,1.7c1.2,1.1,1.6,2.6,1.4,4.4c-0.3,2.3-1.5,3.5-2.5,4.1c-0.9,0.6-2.2,0.9-3.7,0.9
		c-0.5,0-1,0-1.6-0.1c-1.3-0.2-2.2-0.3-2.7-0.5l-0.3-0.1L141.9,144.3z M91.1,153.9c-0.8,0-1.7,0.1-2.5,0.2l-0.2,0l-0.1-0.1
		c-0.8-1.3-1.7-2.6-2.6-3.8c-0.6-0.8-1.1-1.6-1.5-2.3c0.1,0.9,0.2,2,0.3,3.2l0.3,3.4l-0.3,0c-0.7,0.1-1.5,0.1-2.2,0.2l-0.3,0
		l-0.1-0.7L81,143.7l0.3,0c1-0.1,1.9-0.2,2.9-0.2l0.2,0l0.1,0.1c0.9,1.2,1.7,2.4,2.5,3.6c0.4,0.6,0.8,1.3,1.2,2
		c-0.1-0.8-0.2-1.7-0.3-2.7l-0.2-3.3l0.3,0c0.8-0.1,1.5-0.1,2.3-0.1l0.3,0l0,0.3l0.7,10.7L91.1,153.9z M72.5,155.8
		c-0.3,0-0.5,0-0.8,0c-2.8,0-4.8-1.9-5.2-4.9c-0.2-1.6,0.1-3.2,1-4.4c0.9-1.2,2.2-1.9,3.8-2.1c1.6-0.2,3,0.2,4.1,1
		c1.1,0.9,1.8,2.3,2,3.9C77.7,152.9,75.9,155.4,72.5,155.8 M62.6,144.1l2.3,14.6c14.6-2.2,29.4-3.3,44.1-3.3s29.5,1.1,44.1,3.3
		l2.3-14.6C124.6,139.5,93.3,139.5,62.6,144.1"/>
	<path class="st2" d="M95.7,67.7c4.2-2.4,9-3.2,13.7-3.2s9.4,0.8,13.6,3.2c1.6-2.8,6.1-10.7,6.8-11.9c-1.2-0.7-2.5-1.3-3.8-1.9
		c-0.1-0.1-0.3-0.1-0.4-0.2c-0.5,1.2-1,2.4-1.5,3.6c-1.4-0.6-2.7-1.1-4.1-1.5c0.4-1.2,0.7-2.4,1.1-3.6c-1.5-0.4-3-0.8-4.5-1
		c-0.2,1.2-0.4,2.5-0.6,3.7c-1.4-0.3-2.9-0.4-4.3-0.5c0.1-1.2,0.1-2.5,0.2-3.7c-1.5-0.1-3.1-0.1-4.6,0c0.1,1.2,0.1,2.5,0.2,3.7
		c-1.4,0.1-2.9,0.3-4.3,0.5c-0.2-1.2-0.4-2.5-0.6-3.7c-1.5,0.2-3,0.6-4.5,1c0.4,1.2,0.7,2.4,1.1,3.6c-1.4,0.4-2.8,0.9-4.2,1.5
		c-0.5-1.2-1-2.4-1.5-3.5c-0.1,0.1-0.3,0.1-0.4,0.2c-1.3,0.6-2.6,1.2-3.8,1.9C89.6,56.9,94,64.9,95.7,67.7"/>
	<path class="st2" d="M155.7,162.2l-1.5-0.2c-4.3-0.7-8.8-1.3-13.5-1.8v0c-1.2,0.8-2.3,1.7-3.4,2.5c8.7,0.9,17.5,2,26.1,3.4
		c4.2-3.3,8.6-6.5,13-9.7c-6.3-1-12.8-1.8-19.3-2.5L155.7,162.2z"/>
	<path class="st2" d="M136.8,35.2l-8.7,13.8c1.4,0.6,2.7,1.2,4,1.9L136.8,35.2z"/>
</g>
</svg>
