<?xml version="1.0" encoding="utf-8"?>
<!-- Generator: Adobe Illustrator 19.2.1, SVG Export Plug-In . SVG Version: 6.00 Build 0)  -->
<!DOCTYPE svg PUBLIC "-//W3C//DTD SVG 1.1//EN" "http://www.w3.org/Graphics/SVG/1.1/DTD/svg11.dtd">
<svg version="1.1" id="Layer_1" xmlns="http://www.w3.org/2000/svg" xmlns:xlink="http://www.w3.org/1999/xlink" x="0px" y="0px"
	 viewBox="0 0 58 65.8" style="enable-background:new 0 0 58 65.8;" xml:space="preserve">
<style type="text/css">
	.st0{fill:#C8102E;}
	.st1{fill:#4B4F55;}
</style>
<g>
	<g>
		<path class="st0" d="M12.6,62c-0.5,0.2-1.5,0.5-2.8,0.5C6,62.4,4,60.1,4,57.1c0-3.7,2.7-5.6,6-5.6c1.3,0,2.3,0.2,2.7,0.5l-0.5,1.9
			c-0.5-0.2-1.2-0.4-2.1-0.4c-2,0-3.5,1.2-3.5,3.5c0,2.1,1.3,3.5,3.5,3.5c0.8,0,1.6-0.1,2.1-0.3L12.6,62z"/>
		<path class="st0" d="M17.9,58.6c-1.3,0-2.3,0.3-2.3,1.2c0,0.6,0.4,0.9,1,0.9c0.6,0,1.1-0.4,1.3-0.9c0-0.1,0.1-0.3,0.1-0.4V58.6z
			 M20.3,60.4c0,0.7,0,1.5,0.1,1.9h-2.3L18,61.5h-0.1c-0.5,0.6-1.3,0.9-2.3,0.9c-1.6,0-2.6-1.1-2.6-2.4c0-2,1.9-3,4.7-3V57
			c0-0.4-0.2-1-1.5-1c-0.8,0-1.7,0.3-2.2,0.6L13.6,55c0.6-0.3,1.7-0.7,3.1-0.7c2.7,0,3.5,1.5,3.5,3.4L20.3,60.4L20.3,60.4z"/>
		<path class="st0" d="M29.5,57.7c0-0.1,0-0.3-0.1-0.4c-0.2-0.6-0.6-1-1.3-1c-0.9,0-1.6,0.8-1.6,2.2c0,1.2,0.6,2.1,1.6,2.1
			c0.6,0,1.2-0.4,1.3-1c0.1-0.2,0.1-0.4,0.1-0.6L29.5,57.7L29.5,57.7z M32,61.1c0,1.5-0.3,2.7-1.2,3.5c-0.9,0.7-2.1,0.9-3.2,0.9
			c-1.1,0-2.2-0.2-2.9-0.6l0.5-1.8c0.5,0.3,1.4,0.6,2.3,0.6c1.2,0,2.1-0.6,2.1-2v-0.5h0c-0.5,0.6-1.2,1-2.2,1c-2,0-3.4-1.6-3.4-3.8
			c0-2.5,1.7-4.1,3.7-4.1c1.1,0,1.8,0.5,2.2,1.1h0l0.1-0.9h2.2c0,0.5-0.1,1.2-0.1,2.3C32,56.8,32,61.1,32,61.1z"/>
		<path class="st0" d="M37.3,58.6c-1.3,0-2.3,0.3-2.3,1.2c0,0.6,0.4,0.9,1,0.9c0.6,0,1.1-0.4,1.3-0.9c0-0.1,0.1-0.3,0.1-0.4V58.6z
			 M39.7,60.4c0,0.7,0,1.5,0.1,1.9h-2.3l-0.2-0.8h-0.1c-0.5,0.6-1.3,0.9-2.3,0.9c-1.6,0-2.6-1.1-2.6-2.4c0-2,1.9-3,4.7-3V57
			c0-0.4-0.2-1-1.5-1c-0.8,0-1.7,0.3-2.2,0.6L33,55c0.6-0.3,1.7-0.7,3.1-0.7c2.7,0,3.5,1.5,3.5,3.4L39.7,60.4L39.7,60.4z"/>
		<path class="st0" d="M40.4,57.1c0-1.1,0-1.9-0.1-2.6h2.1l0.1,1.4h0.1c0.4-1.1,1.4-1.6,2.2-1.6c0.2,0,0.3,0,0.5,0.1v2.3
			c-0.2,0-0.4-0.1-0.7-0.1c-0.9,0-1.5,0.5-1.7,1.2c0,0.2-0.1,0.3-0.1,0.5v3.9h-2.5V57.1z"/>
		<path class="st0" d="M48.5,54.5l1.2,3.8c0.1,0.4,0.3,1,0.4,1.5h0.1c0.1-0.4,0.2-1,0.3-1.5l1-3.8h2.7l-1.9,5.1
			c-1.2,3.1-1.9,4.3-2.8,5.1c-0.9,0.7-1.8,1-2.4,1l-0.5-2c0.3-0.1,0.7-0.2,1.1-0.4c0.4-0.2,0.8-0.6,1-1c0.1-0.1,0.1-0.2,0.1-0.3
			c0-0.1,0-0.2-0.1-0.4l-3-7.1L48.5,54.5L48.5,54.5z"/>
		<rect x="20.9" y="51" class="st0" width="2.5" height="11.2"/>
	</g>
	<g>
		<path class="st1" d="M33.9,12.6c-0.4-0.2-0.8-0.3-1.3-0.5c0.1-0.4,0.2-0.8,0.3-1.1c-0.5-0.1-0.9-0.2-1.4-0.3
			c-0.1,0.4-0.1,0.8-0.2,1.1c-0.4-0.1-0.9-0.1-1.3-0.2c0-0.4,0.1-0.8,0.1-1.1c-0.5,0-0.9,0-1.4,0c0,0.4,0.1,0.8,0.1,1.1
			c-0.4,0-0.9,0.1-1.3,0.2c-0.1-0.4-0.1-0.8-0.2-1.1c-0.5,0.1-0.9,0.2-1.4,0.3c0.1,0.4,0.2,0.8,0.3,1.1c-0.4,0.1-0.9,0.3-1.3,0.5
			c-0.2-0.4-0.3-0.7-0.5-1.1c-0.4,0.2-0.9,0.4-1.3,0.6c0.2,0.3,1.6,2.8,2.1,3.6c1.3-0.7,2.7-1,4.2-1c1.4,0,2.8,0.2,4.1,1
			c0.5-0.9,1.9-3.2,2.1-3.6c-0.4-0.2-0.9-0.5-1.3-0.6C34.3,11.9,34.1,12.3,33.9,12.6"/>
		<path class="st1" d="M41.8,15c0.4-0.8,1.2-0.3,1.1-0.2C42.6,15.7,41.8,15.1,41.8,15 M57.3,22.8c-0.1-0.6-0.5-0.9-0.9-1.3
			c-0.2-0.1-0.3-0.3-0.5-0.5c-0.1-0.1-0.3-0.3-0.6-0.6c-0.6-0.7-1.5-1.6-2.4-1.7c-0.2,0-0.7-0.1-1,0.3c-0.3,0.3-0.4,0.7-0.4,1.3
			c0,0.8,0.8,1.7,1.6,2.6c0.8,0.9,1.6,1.8,1.6,2.6c0,0.4-0.4,0.7-0.7,0.9c-0.1,0.1-0.2,0.1-0.2,0.2l0,0l-0.1,0
			C53,26,50,22,49.2,18.6c-0.9-3.6-1.3-4.5-2.6-5.2c-0.3-0.2-0.5-0.3-0.7-0.4c-0.1-0.1-0.2-0.2-0.4-0.2h0v0
			c-0.1-0.1-0.1-0.2-0.1-0.3c0-0.1,0-0.2,0-0.2c-0.2-0.5-0.8-0.4-1-0.3c-0.7,0.3-2,0.4-3.7,0.2c1.6,0.9,2.9,0.7,2.9,0.6
			c0.1,0,0.1,0,0.1,0c0,0,0,0.1,0,0.1c-0.1,0.1-0.7,0.5-1.6,0.6c-0.5,0.1-0.5,0.2-0.6,0.6c0,0.1-0.1,0.3-0.1,0.4
			c0,0-1.4,2.1-1.6,2.9c-0.1,0.2,0,0.3,0.1,0.5c0.2,0.3,0.6,0.9,1,0.9h0c0.1,0.1,0.4-0.1,0.5-0.3c0.3-0.4,1.4-0.3,1.5-0.3
			c0,0,1-0.1,1.4-0.8c0,0,0.1-0.1,0.1-0.1l0,0l0,0c0,0,0.2,0.1,0.2,0.3c0,0.2-0.1,0.4-0.3,0.7c-0.5,0.3-1,0.5-1.4,0.6
			c0,0-0.6,0.2-0.8,0.6c-0.2,0.4-0.5,1.3-0.6,1.5c0.2,0.2,0.9,0,1.4-0.2h0c0,0,0.1,0,0.1,0.1c0,0,0,0.1,0,0.2
			c-0.1,0.2-0.5,0.4-1.1,0.4c0,0-2.4-0.1-3,0.6c-0.1,0.2-0.2,0.3-0.1,0.5c0.2,1,0.4,2.2,0.8,3.3c0.1,0.2,0.2,0.2,0.2,0.3
			c0.1,0.1,0.6,0.8,0.8,0.8c0,0,0.1,0,0.2-0.2c0.1-0.3,0.2-0.5,0.2-0.7c0-0.2,0-0.4,0-0.5c0-0.2,0-0.3,0-0.5c-0.1,0-0.2,0-0.2-0.1
			c-0.2,0-0.3-0.1-0.3-0.1c-0.1-0.2-0.1-0.3-0.1-0.5c0-0.2,0.1-0.3,0-0.4c0,0,0-0.1-0.1-0.1c0,0-0.3-0.5-0.2-0.8
			c0-0.1,0.4-0.1,0.8-0.1h0c0.2,0.1,0.7,0.3,0.8,0.3c0.8,0.3,2.4,0.4,2.8,0.2c0.4-0.2,0.7-0.9,0.8-1.1c0-0.1,0.1-0.1,0.1-0.1
			l0.1-0.1l0,0.1c0.1,0.2,0,1.4-0.6,1.7c-0.2,0.1-0.6,0.2-1,0.2h0c-0.7,0-1.2-0.1-1.6-0.3c0.8,2,2.9,3.2,5.1,4.1
			c1.4,0.6,2.5,1.1,2.6,1.9c0,0.1,0,0.3-0.1,0.5c-0.1,1-0.5,3.3,1.6,5.2c0.3,0.2,0.9,1.6-0.1,3.3c-0.1,0.2-0.3,0.4-0.5,0.6
			c-0.3,0.4-0.7,0.8-0.6,1c0.1,0.3,0.9,0.5,1,0.4c0.1,0,0.1,0,0.2,0c0.3,0,0.7,0,0.8-0.2c0.1-0.1,0.1-0.2,0.1-0.4
			c0-0.2,0.1-0.5,0.2-0.5c0.1-0.1,0.2-1,0.3-1.6c0.1-0.6,0.1-1.2,0.2-1.3c0.1-0.1,0.2-0.3,0.3-0.5c0.2-0.3,0.4-0.5,0.4-0.7
			c0-0.1-0.1-0.2-0.2-0.4C53.1,35,52.7,34.5,53,34c0.2-0.5,0.5-0.9,0.7-1.2c0.2-0.2,0.3-0.4,0.4-0.6c0.3-0.5,0.8-1.9,0.8-2.7
			c0-0.1-0.1-0.6-0.6-1.9l0,0l0.1-0.1c0.2-0.2,1-1.1,1.1-2c0.1-1.1-1-2.2-2-3.1c-0.8-0.8-1.5-1.5-1.6-2.1c0-0.4,0.1-0.6,0.2-0.8
			c0.2-0.2,0.4-0.2,0.5-0.2h0.1c1,0,1.9,1,2.5,1.8c0.1,0.2,0.1,0.6,0.1,0.9c0,0.2,0,0.5,0,0.7c0.1,0.3,0.1,0.4,0.2,0.5
			c0.1,0.2,0.3,0.4,0.3,1c0.2-0.1,0.3-0.8,0.3-1c0,0,0-0.1,0-0.1l0.1,0c-0.1,1.1,0.2,1.6,0.3,1.8c0.1,0.1,0.2,0.2,0.4,0.2
			c-0.2-0.5-0.1-0.9,0.1-1.3C57.3,23.5,57.4,23.2,57.3,22.8"/>
		<path class="st1" d="M47.9,30.8c0.1-0.1,0.1-0.1,0.1-0.1c0.3-0.3,0.7-0.9,0.6-1.2c0-0.1-0.1-0.2-0.3-0.3c-1.3-0.4-3-1.2-4.3-2
			c0.3,1,0.3,1.7-0.1,2c-0.5,0.5-0.2,1.4,0.3,2.1c0.2,0.3,0.4,0.6,0.5,0.9c0.5,0.8,0.8,1.3,0.7,1.6c-0.1,0.1-0.2,0.2-0.4,0.2
			c-0.4,0.1-1.5,0-1.6,0c0,0,0,0-0.1,0c-0.1,0-0.3,0.1-0.4,0.1c-0.2,0.1-0.3,0.2-0.3,0.4c0,0.3-0.2,0.5-0.5,0.8
			c-0.3,0.2-0.8,1.1-1,1.4l-0.1,0.1v0c0,0,0.2,0.1,1.5-0.2c0.4-0.1,0.9-0.3,0.9-0.4c0,0,0.1-0.6,0.1-0.7c0,0,0.1-0.5,0.7-0.5
			c0,0,0.1,0,0.2,0c0.6,0,2.6,0.1,2.9,0c0.2-0.1,0.4-0.2,0.5-0.3c0-0.1,0-0.1,0-0.2c-0.4-0.5-0.8-1.4-0.9-2.1c0-0.3,0-0.6,0.1-0.8
			C47.5,31.3,47.7,31.1,47.9,30.8"/>
		<path class="st1" d="M16.5,35.2c-0.1-0.1-0.2-0.1-0.3-0.5c-0.1-0.3-0.4-0.5-0.8-0.6C15,34,13.2,33.4,13.2,33
			c0-0.4,0.3-0.8,0.7-1.2c0.5-0.6,1-1.2,0.8-1.9v0c-0.1-0.3-0.3-1-0.6-1.5c-0.2-0.3-0.6-0.4-1-0.3c-2,0.7-2.5,1.6-2.4,1.7
			c0,0.2,0.2,0.3,0.4,0.5c0.6,0.5,1.4,1.1,0.3,3.4c-0.1,0.1,0,0.2,0,0.3c0.1,0.1,0.2,0.2,0.5,0.2c0.8-0.2,2,0.3,2.4,0.7
			c0.3,0.3,0.5,0.3,0.6,0.3h0c0,0,0.1,0,0.1,0.1c0.1,0.1,0.1,0.4,0,0.5c0,0.2,0,1.2,0.1,1.1c0.3,0,1-0.1,2.1-0.2
			c0-0.2-0.4-1.2-0.6-1.4C16.6,35.3,16.5,35.2,16.5,35.2"/>
		<path class="st1" d="M15.9,15c0.1,0.1-0.8,0.6-1.1-0.2C14.8,14.7,15.5,14.2,15.9,15 M18.8,21.3c-0.2,0-1.5-0.4-2.6-0.7
			c-0.6-0.2-1.1-0.3-1.2-0.3c-0.5-0.1-0.7-0.6-0.7-0.7c0-0.1,0-0.1,0.1-0.1c0.1,0,0.1,0.1,0.1,0.1c0,0.1,0.2,0.2,0.5,0.3
			c0.2,0.1,0.5,0.1,0.9,0.2c0.3,0.1,0.8,0.2,1.2,0.3c-0.3-0.9-1.6-1.7-3.8-3.2c-0.7-0.5-1.1-0.9-1-1.4c0-0.1,0.1-0.2,0.1-0.2l0.1,0
			l0,0.1c0.7,1.4,1.6,1.3,1.9,1.3c0.2,0,0.4,0,0.5,0c0,0,0.1,0,0.1,0.1c0.2,0.1,0.5,0.3,1.2,0.4c0.1,0,0.4,0.4,0.5,0.5
			c0.1,0.1,0.2,0.1,0.3,0.1c0.1,0,0.2,0,0.2-0.1c0,0,0-0.1-0.1-0.1c-0.2-0.2-0.2-0.3-0.2-0.5l0-0.1h0.1c0.2,0.1,0.4,0.1,0.5,0.1
			c0.1,0,0.1,0.1,0.2,0.1c0.1,0.1,0.2,0.1,0.3,0.1c0.1,0,0.2-0.1,0.3-0.2c0,0,0.1-0.1,0.1-0.1c0.2-0.2,0.3-0.3,0.2-0.7
			c-0.1-0.1-0.3-0.4-0.7-0.8c-0.5-0.5-1.1-1.3-1.3-1.6c-0.2-0.5-0.6-0.9-1-1h0c-0.1-0.1-0.1-0.1-0.1-0.1c0-0.1,0.2-0.2,0.5-0.4
			c0.3-0.1,0.5-0.3,0.5-0.4c0,0,0,0,0-0.1c-0.1-0.1-0.5-0.2-0.9-0.2c-0.4,0-0.7,0.1-0.8,0.3l0,0l-0.1,0C14.4,12,14,12,13.3,12h-0.1
			c-0.5,0-0.9,0.2-1.2,0.3c-0.3,0.1-0.5,0.2-0.8,0.2c-0.2,0-0.3-0.1-0.5-0.1c0,0,0,0,0,0l0,0c-0.1,0.3,0,0.6,0.3,0.8l0.1,0.1l-0.1,0
			c-0.6,0.2-0.8,0.5-0.9,0.7c-0.2,0.3-0.3,0.5-0.8,0.5c-0.2,0-0.4,0-0.6-0.1c0,0,0,0,0,0c-0.1,0.2,0,0.3,0.1,0.5
			c0.1,0.2,0.4,0.3,0.8,0.4l0.1,0l-0.1,0.1c-0.7,0.6-0.8,1.5-0.9,2.4c-0.1,0.7-0.2,1.2-0.5,1.5c0,0,0,0,0,0v0
			c0.2,0.1,0.3,0.1,0.5,0.1c0.2,0,0.3-0.1,0.3-0.2c0,0,0.1-0.1,0.1-0.1l0.1,0l0,0.1c0.1,0.2,0.3,1,0.2,1.9c-0.1,0.6-0.3,1.3-0.9,1.6
			c0,0,0,0,0,0v0c0.2,0.1,0.7,0,0.9-0.1c0.7-0.4,1-1.3,1.1-1.5l-0.1-0.1h0.2c0.1,0,0.2,0.1,0.2,0.3c0.2,0.9-1,2.4-2.6,3.4
			c-2.5,1.5-2.9,3.1-3,3.7l0,0.1l-0.1-0.1c-0.4-0.3-0.5-0.6-0.5-0.9c0-0.9,0.5-1.8,1.1-2.8c0.5-0.9,1-1.8,1.2-2.7
			c0.3-2-0.3-3.1-0.7-3.7c-0.2-0.3-0.3-0.5-0.3-0.6c0-0.3,0.1-0.4,0.4-0.4c0.2,0,0.4,0.1,0.5,0.2h0c0,0,0.1,0,0.1-0.1c0,0,0,0,0,0
			c0-0.1-0.1-0.3-0.2-0.4c-0.2-0.2-0.6-0.5-1.1-0.5h0c-0.8,0-1.2,1.2-1.3,1.7v0.1H4.3c-0.1,0-0.1,0-0.2,0c-1.9,0-2.6,2-2.6,3.2
			c0,0.6,0.1,1.2,0.1,1.7c0.1,0.6,0.2,1.1,0,1.5c-0.1,0.3-0.3,0.2-0.5,0.2c-0.1,0-0.2-0.1-0.2,0c0,0,0,0,0,0.1c0,0,0,0.1,0.1,0.1
			c0.2,0.2,0.6,0.3,0.9,0.3c0.4-0.1,0.6-1.1,0.8-1.7c0.1-0.2,0.1-0.3,0.1-0.5c0-0.1,0.1-0.2,0.2-0.2C2.9,23,3,23.2,3,23.9v0
			C3,24,3.1,24,3.1,24s0.1,0,0.1-0.1c0.1-0.1,0.1-0.3,0.1-0.5c0.1-0.5,0.2-1,0.7-1l0,0c0.1,0,0.1,0,0.2,0.1c0.2,0.2,0.1,0.9-0.3,2.1
			c-0.3,1-0.7,2.1-0.6,2.9c0.2,1.6,1.2,2,1.4,2.1h0v0c0.1,0.6,0.4,1.5,0.8,2.2c0.6,1.4,0.8,2.6,0.4,3.4l0,0.1
			c-0.1,0.1-0.2,0.3-0.2,0.5c0,0.1,0,0.3,0.2,0.5c0.4,0.4,0.1,1.6-0.1,2.3c-0.1,0.2,0.1,0.5,0.4,0.6c0.1,0.1,0.2,0.5,0.1,0.8
			c-0.1,0.4,0,0.7,0.1,0.9l0,0c0.2,0.1,0.5,0.1,0.8,0.1c0.7,0,1.5-0.1,1.5-0.2c0,0,0.1,0,0.1-0.1s0-0.1,0-0.1l0,0v0
			c-0.1-0.1-0.5-0.9-0.7-1.1l-0.1-0.1c-0.2-0.1-0.3-0.3-0.3-0.6c0-0.1-0.1-0.3-0.1-0.4c-0.1-0.2-0.1-1.7-0.1-2
			c0.2-1.2,0.9-2.1,1.6-3c0.7-0.9,1.3-1.7,1.2-2.5c0-0.1-0.1-0.2-0.1-0.4c-0.2-0.4-0.4-0.8,0-1.3c0.6-0.9,1.7-1.3,2.8-1.8
			c1.6-0.7,3.3-1.4,3.8-3.5c0,0,0-0.1,0-0.2c0.1-0.2,0.2-0.7,0.2-0.9c0,0,0,0-0.1,0c-0.2,0-0.5,0-1,0.2c-0.5,0.2-0.8,0.3-1.2,0.3
			c-0.9,0-1.2-0.4-1.3-0.6l0,0l0,0c0-0.1,0.1-0.1,0.1-0.1c0.1,0,0.1,0.1,0.2,0.1l0,0c0.5,0.2,1,0.3,1.9-0.1c1-0.4,2.8-0.4,3.3,0
			c0,0,0,0,0,0.1c0,0.1,0.2,1.1-0.3,1.5c-0.3,0.2-0.3,0.5-0.3,0.6c0,0.1,0,0.1,0,0.1c0,0.1-0.3,0.2-0.4,0.2c-0.1,0-0.1,0-0.2,0
			c-0.3,0-0.7,0.1-0.8,0.2c-0.1,0.1,0.2,1,0.4,1.4c0.1,0.3,0.2,0.3,0.2,0.3h0c0.1,0,0.7-0.2,1.2-0.5l0,0c0.3-0.4,0.5-0.6,0.5-0.7
			c0.1-0.1,0.2-0.1,0.2-0.2c0.4-1.1,0.8-2.4,0.8-3.3C20.4,21.8,19.3,21.5,18.8,21.3"/>
		<path class="st1" d="M21.5,20.4l-0.3-0.8c0.4-0.5,1-1.3,1.6-2.5c0.1-0.2,0.2-0.2,0.4-0.2c0.8,0.2,1.6,0.3,2.3,0.3
			c2,0,3.6-0.5,4-0.7c0.4,0.2,2,0.7,4,0.7c0.8,0,1.5-0.1,2.3-0.3c0.2-0.1,0.3,0.1,0.4,0.2c0.6,1.2,1.2,1.9,1.6,2.5l-0.3,0.8l-3-1.2
			l-2,1l-2.9-2l-3,2l-2.1-1L21.5,20.4z M31.5,30.9l0.2,0.8l-2-0.2l0.1,1.7h-0.6l0.1-1.7l-2,0.2l0.2-0.8c0,0,0-0.1,0-0.1l-2-1.7
			l0.6-0.3c0,0,0.1,0,0.1,0s0-0.1-0.1-0.1l-0.3-1.4l1.3,0.3l0.2-0.8l1,1.2c0,0,0,0,0,0c0,0,0-0.1,0-0.1l-0.4-2.3l0.8,0.4
			c0.1,0,0.1,0.1,0.1,0l0,0l0.8-1.6l0.8,1.6c0,0,0,0,0,0c0,0,0.1,0,0.1,0l0.8-0.4l-0.4,2.3c0,0.1,0,0.1,0,0.1l0,0l1-1.2l0.2,0.8
			l1.3-0.3L33,28.7c0,0.1,0,0.1,0,0.1c0,0,0,0,0,0l0.6,0.3l-2,1.7C31.6,30.9,31.5,30.9,31.5,30.9 M38.1,27.8c0-0.1-0.1-0.3-0.1-0.4
			c-0.1-0.2-1.1-3.2-1.1-4.3c0-0.6,0.1-1.2,0.3-1.9H21.8c0.2,0.7,0.3,1.2,0.3,1.9c0,1.1-1.1,4.1-1.1,4.3c-0.1,0.1-0.1,0.2-0.1,0.4
			c-0.4,2.2,0.1,3.4,0.9,4.2c0.6,0.5,6.8,4.4,7.7,4.4c0.8,0,7-3.9,7.7-4.4C38,31.2,38.5,30,38.1,27.8"/>
		<path class="st1" d="M33.4,9.5l0.8-6.8L32,9.2C32.5,9.3,32.9,9.4,33.4,9.5"/>
		<path class="st1" d="M36.5,10.7l1.4-4.8l-2.7,4.2C35.6,10.3,36.1,10.5,36.5,10.7"/>
		<path class="st1" d="M27,9.2l-2.2-6.6l0.9,6.9C26.1,9.4,26.5,9.3,27,9.2"/>
		<path class="st1" d="M23.8,10.1l-2.7-4.3l1.5,4.9C23,10.5,23.4,10.3,23.8,10.1"/>
		<path class="st1" d="M30.2,9l-0.7-9l-0.7,9C29.2,9,29.7,9,30.2,9"/>
		<path class="st1" d="M23.6,47.9l1.7,1.6c0,0,0.6-0.6,0.8-1.6C26.3,46.8,27,46,27,46s3.7,3.2,3.7,3.2c0,0,0.2,0,0.2-0.1
			C31,49.1,31,49,31,49c-0.1-0.1-5.5-4.9-5.5-4.9s-1,1-1.3,2.4C24.1,47.6,23.6,47.9,23.6,47.9"/>
		<path class="st1" d="M35.4,47.9l-1.7,1.6c0,0-0.6-0.6-0.8-1.6c-0.2-1.1-0.9-1.9-0.9-1.9s-3.7,3.2-3.7,3.2c0,0-0.2,0-0.2-0.1
			C27.9,49.1,28,49,28,49c0.1-0.1,5.5-4.9,5.5-4.9s1,1,1.3,2.4C34.9,47.6,35.4,47.9,35.4,47.9"/>
		<path class="st1" d="M41.2,40.3c0.1,0.2,0.2,0.4,0.2,0.7c-0.1,0.7-0.5,1-1.2,0.9c-0.1,0-0.2,0-0.2,0l0.2-2c0.1,0,0.2,0,0.3,0
			C40.8,39.9,41.1,40,41.2,40.3 M42.2,41.1c-0.1,0.7-0.5,1-0.7,1.2c-0.3,0.2-0.6,0.2-1.1,0.2c-0.2,0-0.3,0-0.5,0
			c-0.4-0.1-0.7-0.1-0.8-0.1h0v0l0.3-3.1h0c0.3,0,0.7,0,1,0.1c0.6,0.1,1,0.2,1.3,0.5C42.2,40.1,42.3,40.5,42.2,41.1 M37.4,41.3
			c0,0.1,0.1,0.2,0.1,0.3c0.1,0.2,0.1,0.5,0.1,0.6l0,0.1h-0.1c-0.2,0-0.5-0.1-0.8-0.1h0v0c-0.1-0.1-0.1-0.4-0.2-0.8
			c-0.1-0.4-0.2-0.5-0.5-0.5h-0.2c0,0.4-0.1,0.8-0.1,1.2v0h0c-0.2,0-0.5,0-0.7-0.1h0v0l0.2-3.1h0c0.3,0,0.6,0,1,0
			c0.5,0,0.9,0.1,1.1,0.3c0.2,0.2,0.3,0.4,0.3,0.7c0,0.4-0.3,0.6-0.6,0.7C37.2,40.8,37.3,40.9,37.4,41.3 M33.5,42
			c-0.3,0-0.5,0-0.8,0h0v0c-0.1-0.3-0.1-0.5-0.2-0.8c-0.3,0-0.6,0-0.9,0c-0.1,0.3-0.2,0.5-0.2,0.8v0h0c-0.2,0-0.5,0-0.8,0h-0.1
			l0-0.1c0.3-1,0.7-2.1,1-3.1v0h0c0.3,0,0.7,0,1,0h0v0C33,39.8,33.3,40.9,33.5,42L33.5,42L33.5,42z M29.7,38.7
			c-0.3,1-0.6,2.1-0.8,3.2v0h0c-0.3,0-0.5,0-0.8,0h0v0c-0.1-0.5-0.2-0.9-0.3-1.3c-0.1-0.3-0.1-0.5-0.1-0.8c0,0.2-0.1,0.5-0.1,0.8
			c-0.1,0.5-0.2,0.9-0.3,1.4v0h0c-0.3,0-0.5,0-0.8,0h0v0c-0.3-1-0.6-2.1-0.9-3.1v-0.1h0.1c0.3,0,0.5,0,0.8,0h0v0
			c0.1,0.4,0.2,0.9,0.3,1.3c0.1,0.3,0.1,0.6,0.2,0.9c0.1-0.3,0.1-0.6,0.2-0.9c0.1-0.4,0.2-0.9,0.2-1.3v0h0c0.3,0,0.5,0,0.8,0h0v0
			c0.1,0.4,0.2,0.9,0.3,1.3c0.1,0.3,0.1,0.5,0.2,0.8c0-0.2,0.1-0.4,0.1-0.6l0.1-0.2c0.1-0.4,0.2-0.9,0.3-1.3v0h0
			C29.2,38.6,29.5,38.6,29.7,38.7l0.1-0.1L29.7,38.7z M23.9,42c-0.2,0-0.5,0-0.8,0.1h0v0c-0.3-0.4-0.5-0.8-0.8-1.2
			c-0.2-0.4-0.4-0.7-0.6-0.9c0.1,0.3,0.1,0.8,0.1,1.2l0.1,1h0c-0.2,0-0.5,0-0.7,0.1h0L21,39h0c0.3,0,0.6-0.1,0.9-0.1h0v0
			c0.2,0.3,0.5,0.7,0.8,1.1c0.2,0.2,0.3,0.6,0.5,0.9c-0.1-0.3-0.1-0.7-0.1-1.1L23,38.9h0c0.2,0,0.5,0,0.7-0.1h0v0
			C23.8,39.9,23.9,40.9,23.9,42L23.9,42L23.9,42z M18.3,42.6c-0.1,0-0.2,0-0.2,0c-0.8,0-1.4-0.6-1.5-1.5c-0.1-0.5,0-0.9,0.3-1.3
			c0.3-0.3,0.6-0.5,1.1-0.6s0.9,0.1,1.2,0.3c0.3,0.3,0.5,0.7,0.6,1.2C19.8,41.8,19.3,42.5,18.3,42.6 M15.1,39l0.7,4.7
			c4.5-0.7,9-1,13.6-1s9.1,0.3,13.6,1l0.7-4.7C34.2,37.5,24.6,37.5,15.1,39 M36.7,39.6c0.1,0.1,0.1,0.2,0.1,0.3
			c0,0.3-0.2,0.4-0.6,0.4c-0.1,0-0.2,0-0.3,0c0-0.3,0-0.5,0.1-0.8c0.1,0,0.2,0,0.3,0C36.5,39.5,36.7,39.6,36.7,39.6 M18.9,40.8
			c0.1,0.6-0.2,1.1-0.6,1.1c-0.5,0.1-0.8-0.3-0.9-0.9l0,0c-0.1-0.3,0-0.7,0.2-0.9c0.1-0.1,0.3-0.2,0.5-0.2c0.2,0,0.3,0,0.5,0.1
			C18.7,40.2,18.8,40.5,18.9,40.8 M32.2,39.9c0.1,0.2,0.1,0.4,0.2,0.6c-0.2,0-0.4,0-0.6,0c0.1-0.2,0.1-0.4,0.2-0.6
			c0-0.1,0.1-0.2,0.1-0.3c0-0.1,0-0.1,0-0.1C32.1,39.5,32.2,39.7,32.2,39.9 M8.7,42.7c1.5,1,2.9,2.1,4.3,3.2
			c2.8-0.5,5.6-0.8,8.4-1.1c-0.5-0.3-0.9-0.7-1.4-1l-0.1-0.1c-1.5,0.2-2.9,0.3-4.3,0.6l-0.3,0.1l-0.4-2.5
			C12.8,42.2,10.7,42.4,8.7,42.7 M37.6,44.8c2.8,0.3,5.6,0.6,8.4,1.1c1.4-1.1,2.8-2.1,4.3-3.2c-2.1-0.3-4.2-0.6-6.4-0.8l-0.4,2.5
			l-0.3-0.1c-1.3-0.2-2.7-0.4-4.2-0.5l-0.1,0.1C38.5,44.2,38,44.5,37.6,44.8"/>
	</g>
</g>
</svg>
